<!-- Generated by IcoMoon.io -->
<svg version="1.1" xmlns="http://www.w3.org/2000/svg" width="512" height="512" viewBox="0 0 512 512">
<title></title>
<g id="icomoon-ignore">
</g>
<path fill="inherit" d="M242.5 24.5c-26.843 2.043-52.843 8.209-78 18.5-74.458 34.471-119.958 91.971-136.5 172.5-12.675 92.354 17.159 167.521 89.5 225.5 71.454 49.306 147.787 58.306 229 27 59.581-26.914 101.414-70.747 125.5-131.5 26.417-78.344 16.084-151.344-31-219-50.529-63.674-116.696-94.674-198.5-93zM244.5 52.5c82.168-0.681 144.668 33.653 187.5 103 36.116 68.886 35.116 137.219-3 205-40.419 62.806-98.253 95.473-173.5 98-77.438-3.114-136.271-37.448-176.5-103-36.156-68.9-35.156-137.233 3-205 38.030-59.111 92.197-91.778 162.5-98z"></path>
<path fill="inherit" d="M244.5 74.5c61.453-2.216 93.453 27.45 96 89-1.439 36.172-13.939 67.839-37.5 95-3.561 5.682-5.727 11.849-6.5 18.5 0.759 8.19 4.759 14.19 12 18 13.102 6.218 26.435 11.885 40 17 19.493 8.154 36.66 19.654 51.5 34.5 3.225 4.619 6.059 9.452 8.5 14.5-45.389 61.014-106.056 87.014-182 78-52.283-8.689-93.283-34.689-123-78 5.108-11.778 13.108-21.111 24-28 24.063-16.2 49.729-29.533 77-40 9.686-6.055 12.852-14.555 9.5-25.5-6.087-9.175-12.421-18.175-19-27-23.175-36.557-28.508-75.557-16-117 12.567-28.736 34.401-45.069 65.5-49z"></path>
</svg>
